<?xml version="1.0" encoding="UTF-8"?>
<svg width="220px" height="80px" viewBox="0 0 220 80" version="1.1" xmlns="http://www.w3.org/2000/svg" xmlns:xlink="http://www.w3.org/1999/xlink">
    <!-- Generator: Sketch 46.2 (44496) - http://www.bohemiancoding.com/sketch -->
    <title>icon / logo / bmo_mobile_dual_220x80</title>
    <desc>Created with Sketch.</desc>
    <defs>
        <polygon id="path-1" points="75.9735222 5.32907052e-15 0 5.32907052e-15 0 75.8575013 75.9735222 75.8575013 75.9735222 1.68696889e-14"></polygon>
    </defs>
    <g id="Symbols" stroke="none" stroke-width="1" fill="none" fill-rule="evenodd">
        <g id="icon-/-logo-/-bmo_mobile_dual_220x80">
            <g id="BMO-Logo" transform="translate(12.000000, 2.000000)">
                <g id="Group-6" transform="translate(109.804424, 0.000000)">
                    <g id="Group-3">
                        <mask id="mask-2" fill="white">
                            <use xlink:href="#path-1"></use>
                        </mask>
                        <g id="Clip-2"></g>
                        <path d="M38.0532091,-7.10542736e-15 C17.0829946,-7.10542736e-15 0.0697006402,17.015994 0.0697006402,38.0040681 C0.0697006402,58.9953966 17.0829946,76 38.0532091,76 C59.0364343,76 76.0432229,58.9953966 76.0432229,38.0040681 C76.0432229,17.015994 59.0364343,-7.10542736e-15 38.0532091,-7.10542736e-15" id="Fill-1" fill="#ED1C24" mask="url(#mask-2)"></path>
                    </g>
                    <path d="M37.2607614,25.97186 L30.8033155,17.2176631 C30.5422157,16.8600787 30.1266847,16.625 29.6586154,16.625 C29.2048748,16.625 28.7988963,16.8418683 28.5362043,17.1862089 L20.8496785,27.2598262 L20.8496785,43.0448615 L28.4900342,32.8619824 C28.7638707,32.501087 29.1841778,32.2693193 29.6586154,32.2693193 C30.1394213,32.2693193 30.5660967,32.5077089 30.835157,32.8702598 L37.3228523,41.693987 C37.5712156,42.0317056 37.9580892,42.248574 38.3959091,42.248574 C38.833729,42.248574 39.2237868,42.0317056 39.470558,41.693987 L45.9566612,32.8702598 C46.2289056,32.5077089 46.653989,32.2693193 47.1347948,32.2693193 C47.6092324,32.2693193 48.0295396,32.501087 48.3001919,32.8619824 L55.9405476,43.0448615 L55.9405476,27.2598262 L48.2572059,17.1862089 C47.9929219,16.8418683 47.5869434,16.625 47.1347948,16.625 C46.6667255,16.625 46.2511946,16.8600787 45.9885027,17.2176631 L39.5342409,25.97186 C39.2699569,26.3228225 38.8576101,26.5496237 38.3959091,26.5496237 C37.9342081,26.5496237 37.5218613,26.3228225 37.2607614,25.97186 L37.2607614,25.97186 Z M55.9405476,54.6183469 L20.8496785,54.6183469 L20.8751517,54.5902036 L20.8496785,54.6183469 L20.8496785,43.0448615 L55.9405476,43.0448615 L55.9150745,43.0680383 L55.9405476,43.0448615 L55.9405476,54.6183469 Z" id="Fill-8" fill="#FFFFFF"></path>
                </g>
                <g id="Group-2" transform="translate(184.145429, 1.806061)" fill="#FFFFFF">
                    <path d="M4.64897581,0.0728202501 C2.3724435,0.0728202501 0.525641984,1.9931785 0.525641984,4.36347576 C0.525641984,6.73222684 2.3724435,8.65567746 4.64897581,8.65567746 C6.92848204,8.65567746 8.77528356,6.73222684 8.77528356,4.36347576 C8.77528356,1.9931785 6.92848204,0.0728202501 4.64897581,0.0728202501 M4.64897581,8.06039733 C2.72187858,8.06039733 1.15611207,6.40598241 1.15611207,4.36347576 C1.15611207,2.32560767 2.72187858,0.668100384 4.64897581,0.668100384 C6.58053393,0.668100384 8.14778739,2.32560767 8.14778739,4.36347576 C8.14778739,6.40598241 6.58053393,8.06039733 4.64897581,8.06039733" id="Fill-4"></path>
                    <path d="M6.56075739,3.29042534 C6.56075739,2.33643094 6.02396564,1.90195375 4.99350392,1.90195375 L3.15859807,1.90195375 L3.15859807,6.82809014 L3.73256376,6.82809014 L3.73256376,4.64024237 L4.72436457,4.64024237 L6.06113959,6.82809014 L6.74960102,6.82809014 L5.33550421,4.64024237 C6.09682657,4.51809398 6.56075739,3.97693022 6.56075739,3.29042534 L6.56075739,3.29042534 Z M3.73256376,4.12381753 L3.73256376,2.41528623 L4.72436457,2.41528623 C5.56598266,2.41528623 5.94664384,2.67504484 5.94664384,3.27341734 C5.94664384,3.86560511 5.56598266,4.12381753 4.72436457,4.12381753 L3.73256376,4.12381753 Z" id="Fill-6"></path>
                </g>
                <path d="M189.68078,19.5279989 L188.880656,19.5279989 L188.880656,17.1690843 L188.955279,14.6526323 L186.97777,19.5279989 L186.368349,19.5279989 L184.394987,14.656778 L184.46961,17.1690843 L184.46961,19.5279989 L183.669486,19.5279989 L183.669486,13.4918307 L184.705916,13.4918307 L186.675133,18.4252374 L188.64435,13.4918307 L189.68078,13.4918307 L189.68078,19.5279989 Z M193.930391,13.8379984 C194.332528,14.0687779 194.644836,14.3983594 194.867324,14.8267525 C195.089812,15.2551457 195.201054,15.7553909 195.201054,16.3275031 L195.201054,16.6923265 C195.201054,17.2699663 195.089812,17.7722844 194.867324,18.1992957 C194.644836,18.6263069 194.327691,18.9545065 193.915881,19.1839041 C193.504071,19.4133018 193.020408,19.5279989 192.464879,19.5279989 L190.831466,19.5279989 L190.831466,13.4918307 L192.535356,13.4918307 C193.063247,13.4918307 193.528254,13.6072188 193.930391,13.8379984 Z M194.405076,16.3192117 C194.405076,15.8604164 194.332527,15.4686498 194.187426,15.1439001 C194.042325,14.8191504 193.829513,14.5711007 193.548985,14.3997434 C193.268456,14.2283861 192.930584,14.1427088 192.535356,14.1427088 L191.635735,14.1427088 L191.635735,18.8812666 L192.464879,18.8812666 C192.884981,18.8812666 193.240127,18.7921345 193.530329,18.6138677 C193.820531,18.4356008 194.03887,18.1827144 194.185353,17.8552009 C194.331836,17.5276874 194.405076,17.1400665 194.405076,16.6923265 L194.405076,16.3192117 Z" id="MD" fill="#FFFFFF"></path>
                <g id="Group-4" transform="translate(0.000000, 26.853383)" fill="#FFFFFF">
                    <path d="M17.7457388,6.61974855 C17.7457388,9.76991631 16.3591698,11.5173004 12.7075066,11.5173004 L9.606094,11.5173004 L9.606094,1.86198744 C10.0015866,1.82297608 11.3256272,1.79209208 11.7179934,1.79209208 L12.7872304,1.79209208 C16.5139278,1.79209208 17.7457388,3.43869679 17.7457388,6.61974855 M25.1928807,19.1488988 C25.1928807,14.1749497 21.2879772,12.3771759 16.5561345,12.2666437 L16.5561345,12.0764633 C20.5767157,11.7399903 23.8875987,9.9861043 23.8875987,5.75662209 C23.8875987,1.04762519 20.1421428,0.169869465 15.9589875,0.169869465 C10.9270081,0.169869465 5.0165036,0.308034718 0.000156321194,0.169869465 L0.000156321194,1.78884113 C1.05845084,1.71569482 3.63618741,1.86198744 3.63618741,3.25176734 L3.63618741,23.3149875 C3.63618741,24.6560032 0.989669511,24.8413072 0.000156321194,24.8413072 L0.000156321194,26.4180165 C4.85549276,26.2879786 10.6128025,26.4180165 15.4868975,26.4180165 C20.6173593,26.4180165 25.1928807,24.6169918 25.1928807,19.1488988 M18.764953,18.645002 C18.764953,22.760701 17.3893265,24.7128948 12.5887025,24.7128948 L9.606094,24.7128948 L9.606094,13.2094184 L12.7872304,13.2094184 C17.1454654,13.2094184 18.764953,14.7438654 18.764953,18.645002" id="Fill-10"></path>
                    <path d="M57.6679845,26.3773797 C55.4122696,26.3773797 53.1596812,26.3481212 50.9070927,26.4180165 L50.9070927,24.8071722 C51.9325598,24.8071722 54.7760424,24.7454042 54.7760424,23.3149875 L54.7760424,4.7049407 L54.6978818,4.7049407 L44.5151189,26.7691188 L43.284871,26.7691188 L33.3553485,4.66430386 L33.2771879,4.66430386 L33.2771879,23.3149875 C33.2771879,24.7795392 36.0972223,24.8071722 37.1648961,24.8071722 L37.2055396,26.4180165 C34.3933212,26.323739 30.557199,26.2587201 27.7871874,26.4180165 L27.7871874,24.8071722 C28.8579876,24.8071722 31.2778397,24.7177712 31.2778397,23.3149875 L31.2778397,3.27614944 C31.2778397,1.90099881 28.7767006,1.78884113 27.7871874,1.78884113 L27.7465439,0.169869465 C30.9573813,0.306409244 34.3933212,0.306409244 37.5963426,0.169869465 L46.1252272,18.7636615 L54.8151227,0.207255357 C57.9009031,0.348671557 61.3837394,0.306409244 64.4617039,0.169869465 L64.4617039,1.78884113 C63.4440528,1.78884113 60.753765,1.86198744 60.753765,3.27614944 L60.753765,23.3149875 C60.753765,24.7454042 63.4049725,24.8071722 64.4617039,24.8071722 L64.4617039,26.4180165 C62.2122418,26.3481212 59.9221362,26.3773797 57.6679845,26.3773797" id="Fill-12"></path>
                    <path d="M88.2009538,13.9816927 C88.2009538,18.9832748 87.7226109,25.9695602 80.5787321,25.9695602 C73.4286005,25.9695602 72.9127405,18.9832748 72.9127405,13.9816927 C72.9127405,8.98661244 73.4286005,2.04584034 80.5787321,2.04584034 C87.6850938,2.04584034 88.2009538,9.02074738 88.2009538,13.9816927 M94.8852482,13.9816927 C94.8852482,5.3000384 89.7813611,0.428494143 80.5787321,0.428494143 C71.3682871,0.428494143 66.2268828,5.25452514 66.2268828,13.9816927 C66.2268828,22.7186131 71.3276436,27.5755281 80.5787321,27.5755281 C89.8220046,27.5755281 94.8852482,22.7186131 94.8852482,13.9816927" id="Fill-14"></path>
                </g>
            </g>
        </g>
    </g>
</svg>