<?xml version="1.0" encoding="UTF-8"?>
<svg width="14px" height="14px" viewBox="0 0 14 14" version="1.1" xmlns="http://www.w3.org/2000/svg" xmlns:xlink="http://www.w3.org/1999/xlink">
    <title>Icons/trivia-x</title>
    <g id="Trivia-Answer" stroke="none" stroke-width="1" fill="none" fill-rule="evenodd">
        <g id="TRV-1-2" transform="translate(-232.000000, -38.000000)" fill="#B0B0B2">
            <g id="Icons/Trivia-X" transform="translate(228.000000, 34.000000)">
                <path d="M17.316392,14.4647455 C16.7438859,13.8684891 16.1576296,13.2859829 15.5663732,12.7047266 L13.8638549,11.0034583 L17.2151409,7.65717225 C17.6575352,7.25208217 17.8947535,6.66981927 17.8613979,6.07090517 C17.8423812,5.28018089 17.3490817,4.57870908 16.6113844,4.29338603 C15.8891999,3.96950302 15.0423221,4.12131592 14.4776115,4.67589015 C14.1188576,5.00839373 13.7751039,5.35589747 13.4313502,5.70465123 L11.000074,8.13842743 L7.63378778,4.77089117 C7.23961171,4.35935605 6.69233102,4.12985125 6.12252151,4.13713435 C5.13579487,4.15347006 4.3033812,4.87623076 4.14875026,5.8509028 L4.125,6.33840805 L4.16000038,6.52716008 C4.17875058,6.60716094 4.19875079,6.68591179 4.22375106,6.76466264 C4.33004547,7.09789925 4.51880432,7.39888147 4.77250697,7.63967206 L8.13504318,10.9997082 L7.468786,11.6659654 C6.58877653,12.5468082 5.70751704,13.4259844 4.82500754,14.3034938 C4.48249821,14.6207522 4.24999835,15.0389017 4.16125039,15.4972567 L4.12625001,16.0210123 L4.17500054,16.2610149 C4.34381921,17.0790719 5.00041554,17.7078127 5.8250183,17.8410319 L6.33377378,17.8722822 L6.57002633,17.8260317 C6.98238873,17.7353204 7.35838133,17.5238246 7.65003795,17.2185252 L11.002574,13.8634891 L12.2238372,15.0860022 C12.919678,15.7810097 13.6146855,16.4772672 14.3088596,17.1747747 C14.6260648,17.518002 15.0448574,17.7506159 15.5038725,17.8385319 L16.0738787,17.8735322 L16.3063812,17.8135316 C17.0203103,17.6511976 17.5898842,17.1141707 17.7938972,16.4110165 C17.9990215,15.7236594 17.8163522,14.9791146 17.316392,14.4647455 L17.316392,14.4647455 Z" id="trivia-x"></path>
            </g>
        </g>
    </g>
</svg>