<?xml version="1.0" encoding="UTF-8"?>
<svg width="24px" height="24px" viewBox="0 0 24 24" version="1.1" xmlns="http://www.w3.org/2000/svg" xmlns:xlink="http://www.w3.org/1999/xlink">
    <!-- Generator: Sketch 59.1 (86144) - https://sketch.com -->
    <title>Icons/Action/View/Hide</title>
    <desc>Created with Sketch.</desc>
    <defs>
        <path d="M22,11.8 C21.0260188,9.85712109 19.6034635,8.17404969 17.85,6.88999998 L21.85,2.88999996 C22.0432997,2.6967003 22.0432997,2.38329963 21.85,2.18999997 C21.6567004,1.99670032 21.3432997,1.99670031 21.15,2.18999996 L17,6.33999998 C15.4845151,5.45097933 13.7569599,4.98799452 12,4.99999997 C5.13999997,4.99999997 2.06999996,11.73 1.99999996,11.8 C1.94007486,11.9300977 1.94007486,12.0799023 1.99999996,12.21 C2.97116656,14.1490116 4.39035292,15.8287249 6.13999998,17.11 L2.13999996,21.11 C2.04332273,21.2007334 1.98848131,21.3274141 1.98848131,21.46 C1.98848131,21.5925859 2.04332273,21.7192667 2.13999996,21.81 C2.23073329,21.9066773 2.35741405,21.9615187 2.48999996,21.9615187 C2.62258587,21.9615187 2.74926663,21.9066773 2.83999996,21.81 L7.03999998,17.62 C8.54041076,18.5147292 10.2530896,18.9912407 12,19 C18.74,19 21.83,12.49 22,12.21 C22.0599251,12.0799023 22.0599251,11.9300977 22,11.8 Z M3.05999996,11.999999 C3.60999997,10.92 6.43999998,5.99999896 12,5.99999896 C13.4738707,5.9992947 14.9245277,6.36711533 16.22,7.06999998 L14.44,8.84999999 C12.8479982,7.68557544 10.6448298,7.85543761 9.2501337,9.2501337 C7.85543761,10.6448298 7.68557544,12.8479982 8.84999999,14.44 L6.91999998,16.38 C5.31789946,15.2315326 3.99795139,13.7337677 3.05999996,11.999999 L3.05999996,11.999999 Z M15,12 C15,13.6568543 13.6568543,15 12,15 C11.379286,14.9968034 10.7748459,14.8011465 10.27,14.44 L14.44,10.27 C14.8011465,10.7748459 14.9968034,11.379286 15,12 Z M8.99999999,12 C8.99999999,10.3431457 10.3431457,8.99999999 12,8.99999999 C12.620714,9.00319661 13.2251541,9.19885352 13.73,9.55999999 L9.55999999,13.73 C9.19885352,13.2251541 9.00319661,12.620714 8.99999999,12 Z M12,18.0000025 C10.5267415,18.0011167 9.07761087,17.6259261 7.78999998,16.91 L9.55999999,15.15 C11.1520018,16.3144246 13.3551702,16.1445624 14.7498663,14.7498663 C16.1445624,13.3551702 16.3144246,11.1520018 15.15,9.55999998 L17.15,7.55999998 C18.7452812,8.72096648 20.0438538,10.2422494 20.94,12 C20.37,13.07 17.46,18.0000025 12,18.0000025 Z" id="path-1"></path>
    </defs>
    <g id="Icons/Action/View/Hide" stroke="none" stroke-width="1" fill="none" fill-rule="evenodd">
        <mask id="mask-2" fill="white">
            <use xlink:href="#path-1"></use>
        </mask>
        <g id="CIBC-ICONS-2019-104" fill-rule="nonzero"></g>
        <g id="Colours/Core/CIBC-Red" mask="url(#mask-2)" fill="#C41F3E">
            <rect id="ClaretRed" x="0" y="0" width="24" height="24"></rect>
        </g>
    </g>
</svg>