<?xml version="1.0" encoding="UTF-8"?>
<svg width="80px" height="32px" viewBox="0 0 80 32" version="1.1" xmlns="http://www.w3.org/2000/svg" xmlns:xlink="http://www.w3.org/1999/xlink">
    <!-- Generator: Sketch 46.2 (44496) - http://www.bohemiancoding.com/sketch -->
    <title>icon / logo / bmo_mobile_dual</title>
    <desc>Created with Sketch.</desc>
    <defs>
        <polygon id="path-1" points="30.9891999 5.32907052e-15 0 5.32907052e-15 0 30.9418755 30.9891999 30.9418755 30.9891999 1.0036428e-14"></polygon>
    </defs>
    <g id="Symbols" stroke="none" stroke-width="1" fill="none" fill-rule="evenodd">
        <g id="icon-/-logo-/-bmo_mobile_dual">
            <g id="BMO-Logo">
                <g id="Group-6" transform="translate(44.788647, 0.000000)">
                    <g id="Group-3">
                        <mask id="mask-2" fill="white">
                            <use xlink:href="#path-1"></use>
                        </mask>
                        <g id="Clip-2"></g>
                        <path d="M15.5217037,-3.55271368e-15 C6.96806361,-3.55271368e-15 0.0284305243,6.9407344 0.0284305243,15.5016594 C0.0284305243,24.0639118 6.96806361,31 15.5217037,31 C24.0806508,31 31.0176304,24.0639118 31.0176304,15.5016594 C31.0176304,6.9407344 24.0806508,-3.55271368e-15 15.5217037,-3.55271368e-15" id="Fill-1" fill="#ED1C24" mask="url(#mask-2)"></path>
                    </g>
                    <path d="M15.1984685,10.593785 L12.5645103,7.02299416 C12.458009,6.87713735 12.2885161,6.78125 12.0975931,6.78125 C11.9125147,6.78125 11.7469182,6.86970946 11.6397676,7.01016416 L8.50447413,11.1191396 L8.50447413,17.5577725 L11.620935,13.4042297 C11.7326315,13.2570223 11.9040725,13.1624855 12.0975931,13.1624855 C12.2937113,13.1624855 12.46775,13.2597234 12.5774982,13.407606 L15.223795,17.0067579 C15.3251011,17.1445115 15.4829048,17.232971 15.6614892,17.232971 C15.8400737,17.232971 15.9991762,17.1445115 16.0998329,17.0067579 L18.7454802,13.407606 C18.8565273,13.2597234 19.0299165,13.1624855 19.2260347,13.1624855 C19.4195553,13.1624855 19.5909964,13.2570223 19.7013941,13.4042297 L22.817855,17.5577725 L22.817855,11.1191396 L19.6838603,7.01016416 C19.5760602,6.86970946 19.4104638,6.78125 19.2260347,6.78125 C19.0351117,6.78125 18.8656189,6.87713735 18.7584682,7.02299416 L16.1258088,10.593785 C16.0180087,10.7369407 15.8498147,10.8294518 15.6614892,10.8294518 C15.4731638,10.8294518 15.3049697,10.7369407 15.1984685,10.593785 L15.1984685,10.593785 Z M22.817855,22.2785362 L8.50447413,22.2785362 L8.5148645,22.2670567 L8.50447413,22.2785362 L8.50447413,17.5577725 L22.817855,17.5577725 L22.8074646,17.5672262 L22.817855,17.5577725 L22.817855,22.2785362 Z" id="Fill-8" fill="#FFFFFF"></path>
                </g>
                <g id="Group-2" transform="translate(75.111951, 0.736683)" fill="#FFFFFF">
                    <path d="M1.89629277,0.0297029968 C0.967707219,0.0297029968 0.214406599,0.81300702 0.214406599,1.7798388 C0.214406599,2.7460399 0.967707219,3.53060528 1.89629277,3.53060528 C2.82609136,3.53060528 3.57939198,2.7460399 3.57939198,1.7798388 C3.57939198,0.81300702 2.82609136,0.0297029968 1.89629277,0.0297029968 M1.89629277,3.28779365 C1.11023995,3.28779365 0.471572028,2.61296651 0.471572028,1.7798388 C0.471572028,0.948603128 1.11023995,0.272514631 1.89629277,0.272514631 C2.68416515,0.272514631 3.32343959,0.948603128 3.32343959,1.7798388 C3.32343959,2.61296651 2.68416515,3.28779365 1.89629277,3.28779365" id="Fill-4"></path>
                    <path d="M2.67609841,1.34214718 C2.67609841,0.953017885 2.45714388,0.775796926 2.03682397,0.775796926 L1.28837553,0.775796926 L1.28837553,2.78514203 L1.52249311,2.78514203 L1.52249311,1.89273044 L1.92704344,1.89273044 L2.47230694,2.78514203 L2.75312673,2.78514203 L2.17632408,1.89273044 C2.48686347,1.84290676 2.67609841,1.62216891 2.67609841,1.34214718 L2.67609841,1.34214718 Z M1.52249311,1.68208347 L1.52249311,0.985182543 L1.92704344,0.985182543 C2.27033503,0.985182543 2.42560472,1.09113671 2.42560472,1.3352097 C2.42560472,1.57675998 2.27033503,1.68208347 1.92704344,1.68208347 L1.52249311,1.68208347 Z" id="Fill-6"></path>
                </g>
                <path d="M77.3697917,7.96536797 L77.0434253,7.96536797 L77.0434253,7.00317911 L77.0738636,5.9767316 L76.2672484,7.96536797 L76.0186688,7.96536797 L75.2137446,5.97842262 L75.2441829,7.00317911 L75.2441829,7.96536797 L74.9178166,7.96536797 L74.9178166,5.50324675 L75.3405709,5.50324675 L76.1438041,7.51555736 L76.9470373,5.50324675 L77.3697917,5.50324675 L77.3697917,7.96536797 Z M79.1031859,5.6444467 C79.2672154,5.73858047 79.3946041,5.873015 79.4853558,6.04775433 C79.5761075,6.22249366 79.6214827,6.42654104 79.6214827,6.6599026 L79.6214827,6.80871212 C79.6214827,7.04432838 79.5761075,7.24922126 79.4853558,7.42339692 C79.3946041,7.59757257 79.2652425,7.73144344 79.0972673,7.82501353 C78.9292921,7.91858362 78.7320087,7.96536797 78.5054113,7.96536797 L77.8391504,7.96536797 L77.8391504,5.50324675 L78.5341585,5.50324675 C78.7494825,5.50324675 78.9391564,5.55031293 79.1031859,5.6444467 Z M79.2968074,6.65652056 C79.2968074,6.46938038 79.2672148,6.30958084 79.2080289,6.17711715 C79.148843,6.04465347 79.0620384,5.94347528 78.9476123,5.87357955 C78.8331862,5.80368381 78.6953697,5.76873647 78.5341585,5.76873647 L78.1672078,5.76873647 L78.1672078,7.70156926 L78.5054113,7.70156926 C78.6767685,7.70156926 78.8216309,7.66521276 78.9400027,7.59249865 C79.0583745,7.51978454 79.1474339,7.41663351 79.2071834,7.28304248 C79.266933,7.14945144 79.2968074,6.9913429 79.2968074,6.80871212 L79.2968074,6.65652056 Z" id="MD" fill="#FFFFFF"></path>
                <g id="Group-4" transform="translate(0.000000, 10.953354)" fill="#FFFFFF">
                    <path d="M7.23839347,2.70016059 C7.23839347,3.98509744 6.67281926,4.69784621 5.18332505,4.69784621 L3.91827518,4.69784621 L3.91827518,0.759494877 C4.07959455,0.743582347 4.61966372,0.730984927 4.77970783,0.730984927 L5.21584398,0.730984927 C6.73594423,0.730984927 7.23839347,1.40262632 7.23839347,2.70016059 M10.2760435,7.81073502 C10.2760435,5.78188736 8.68325386,5.04858491 6.75316013,5.0034994 L6.75316013,4.92592582 C8.39313405,4.78868024 9.7436258,4.07327938 9.7436258,2.34809585 C9.7436258,0.4273208 8.21587404,0.0692888607 6.50958702,0.0692888607 C4.45706911,0.0692888607 2.04620541,0.12564574 6.37625924e-05,0.0692888607 L6.37625924e-05,0.729658882 C0.431736526,0.699822887 1.48318171,0.759494877 1.48318171,1.32637878 L1.48318171,9.51006069 C1.48318171,10.0570539 0.403680985,10.1326384 6.37625924e-05,10.1326384 L6.37625924e-05,10.7757699 C1.98052994,10.7227281 4.32890629,10.7757699 6.31702398,10.7757699 C8.40971233,10.7757699 10.2760435,10.0411414 10.2760435,7.81073502 M7.65412558,7.60519816 C7.65412558,9.28397015 7.09301475,10.0802597 5.13486548,10.0802597 L3.91827518,10.0802597 L3.91827518,5.38805223 L5.21584398,5.38805223 C6.99354511,5.38805223 7.65412558,6.0139451 7.65412558,7.60519816" id="Fill-10"></path>
                    <path d="M23.5224674,10.7591943 C22.6023731,10.7591943 21.6835542,10.7472599 20.7647352,10.7757699 L20.7647352,10.118715 C21.1830178,10.118715 22.3428594,10.0935201 22.3428594,9.51006069 L22.3428594,1.91912055 L22.3109781,1.91912055 L18.1574827,10.9189827 L17.6556711,10.9189827 L13.6054711,1.902545 L13.5735898,1.902545 L13.5735898,9.51006069 C13.5735898,10.1074436 14.723867,10.118715 15.1593655,10.118715 L15.1759438,10.7757699 C14.0288547,10.7373146 12.4641206,10.7107937 11.3342475,10.7757699 L11.3342475,10.118715 C11.7710212,10.118715 12.7580662,10.0822488 12.7580662,9.51006069 L12.7580662,1.33632411 C12.7580662,0.775407408 11.7378647,0.729658882 11.3342475,0.729658882 L11.3176692,0.0692888607 C12.6273529,0.124982718 14.0288547,0.124982718 15.3353503,0.0692888607 L18.8142374,7.65359878 L22.3588,0.0845383693 C23.6174736,0.142221293 25.0381042,0.124982718 26.2935897,0.0692888607 L26.2935897,0.729658882 C25.8784952,0.729658882 24.781141,0.759494877 24.781141,1.33632411 L24.781141,9.51006069 C24.781141,10.0935201 25.8625546,10.118715 26.2935897,10.118715 L26.2935897,10.7757699 C25.376046,10.7472599 24.441924,10.7591943 23.5224674,10.7591943" id="Fill-12"></path>
                    <path d="M35.9767048,5.70305886 C35.9767048,7.74317789 35.7815913,10.5928469 32.8676407,10.5928469 C29.9511397,10.5928469 29.7407231,7.74317789 29.7407231,5.70305886 C29.7407231,3.66559192 29.9511397,0.834487505 32.8676407,0.834487505 C35.7662883,0.834487505 35.9767048,3.67951538 35.9767048,5.70305886 M38.7031934,5.70305886 C38.7031934,2.16185777 36.6213447,0.174780506 32.8676407,0.174780506 C29.1107487,0.174780506 27.0135969,2.14329315 27.0135969,5.70305886 C27.0135969,9.2668027 29.0941704,11.2479128 32.8676407,11.2479128 C36.6379229,11.2479128 38.7031934,9.2668027 38.7031934,5.70305886" id="Fill-14"></path>
                </g>
            </g>
        </g>
    </g>
</svg>