<?xml version="1.0" encoding="UTF-8"?>
<svg width="8px" height="8px" viewBox="0 0 8 8" version="1.1" xmlns="http://www.w3.org/2000/svg" xmlns:xlink="http://www.w3.org/1999/xlink">
    <title>Components/Close</title>
    <g id="Transaction-list---Enrichment-modal" stroke="none" stroke-width="1" fill="none" fill-rule="evenodd">
        <g id="Story-Sample---Approvale-message-for-Tracker" transform="translate(-282.000000, -547.000000)" fill="#F3F3F3">
            <g id="Group" transform="translate(15.000000, 534.000000)">
                <g transform="translate(267.000000, 13.000000)" id="Components/Close">
                    <path d="M7.77839102,0.222215816 C8.06499705,0.508821841 8.07144066,0.976584526 7.80975563,1.3133233 L7.73174821,1.40167807 L5.133,4 L7.73174821,6.59832193 C8.07029683,6.93687055 8.09146217,7.46471304 7.77778418,7.77839102 C7.49117816,8.06499705 7.02341547,8.07144066 6.6866767,7.80975563 L6.59832193,7.73174821 L4,5.133 L1.40167807,7.73174821 C1.06312945,8.07029683 0.53528696,8.09146217 0.221608978,7.77778418 C-0.0649970474,7.49117816 -0.0714406578,7.02341547 0.190244371,6.6866767 L0.268251792,6.59832193 L2.867,4 L0.268251792,1.40167807 C-0.0702968315,1.06312945 -0.0914621665,0.53528696 0.222215816,0.221608978 C0.508821841,-0.0649970474 0.976584526,-0.0714406578 1.3133233,0.190244371 L1.40167807,0.268251792 L4,2.867 L6.59832193,0.268251792 C6.93687055,-0.0702968315 7.46471304,-0.0914621665 7.77839102,0.222215816 Z" id="Combined-Shape"></path>
                </g>
            </g>
        </g>
    </g>
</svg>