<?xml version="1.0" encoding="UTF-8"?>
<svg width="18px" height="14px" viewBox="0 0 18 14" version="1.1" xmlns="http://www.w3.org/2000/svg" xmlns:xlink="http://www.w3.org/1999/xlink">
    <title>Icons/trivia-v</title>
    <g id="Trivia-Answer" stroke="none" stroke-width="1" fill="none" fill-rule="evenodd">
        <g id="TRV-1-2" transform="translate(-230.000000, -129.000000)" fill="#0275BE">
            <g id="Icons/Trivia-X" transform="translate(228.000000, 125.000000)">
                <path d="M8.95512754,11.9387277 L12.6688857,8.05549417 C13.7299594,6.9458846 14.7906101,5.83667504 15.8508377,4.72786547 C16.6199892,3.92625856 17.0388341,3.92625856 17.7940242,4.71466536 C18.1671769,5.10466872 18.5555603,5.47907195 18.9096747,5.88707547 C19.1301026,6.08278217 19.2535422,6.35696861 19.25,6.64284077 C19.2463029,6.92871293 19.1159563,7.20002691 18.8906363,7.39068844 C15.8521069,10.5747159 12.8080775,13.7519433 9.75854822,16.9223707 C9.25085743,17.4479752 8.8307433,17.4623753 8.32686019,16.9451708 C6.56178855,15.1307552 4.80940918,13.3031394 3.06972208,11.4623236 C2.65088222,11.0513457 2.64254244,10.4032006 3.05068368,9.9827108 C3.47079781,9.49430658 3.92137338,9.03350261 4.37956432,8.58349873 C4.55751244,8.34341754 4.84986343,8.20246501 5.15989511,8.20727427 C5.46992678,8.21208353 5.75722977,8.36202773 5.92675199,8.60749894 C6.75428798,9.45230622 7.57293937,10.3067136 8.38270618,11.170721 C8.58780185,11.4169316 8.7788797,11.673297 8.95512754,11.9387277 L8.95512754,11.9387277 Z" id="trivia-v"></path>
            </g>
        </g>
    </g>
</svg>