<svg xmlns="http://www.w3.org/2000/svg" width="144" height="144" viewBox="0 0 144 144">
    <g fill="none" fill-rule="evenodd">
        <g transform="translate(55 54)">
            <path fill="#C1E7FF" fill-rule="nonzero" stroke="#005587" stroke-linecap="round" stroke-linejoin="round" stroke-width="3" d="M34.423 0l-2.788 9.712a31.356 31.356 0 0 0-7.164 2.98l-8.798-4.904-7.885 7.885 4.904 8.798a31.357 31.357 0 0 0-2.98 7.164L0 34.423v11.154l9.712 2.788a31.358 31.358 0 0 0 2.98 7.164l-4.904 8.798 7.885 7.885 8.798-4.904a31.356 31.356 0 0 0 7.164 2.98L34.423 80h11.154l2.788-9.712a31.356 31.356 0 0 0 7.164-2.98l8.798 4.904 7.885-7.885-4.904-8.798a31.358 31.358 0 0 0 2.98-7.164L80 45.577V34.423l-9.712-2.788a31.357 31.357 0 0 0-2.98-7.164l4.904-8.798-7.885-7.885-8.798 4.904a31.356 31.356 0 0 0-7.164-2.98L45.577 0H34.423z"/>
            <path stroke="#001928" stroke-linecap="round" stroke-linejoin="round" stroke-width="3" d="M8.099 15.205l7.463-7.478 8.255 4.762 8.156-2.766 2.64-9.698 11.083.02 2.764 9.68 6.705 2.791 9.01-4.643"/>
            <circle cx="40" cy="40" r="24" fill="#FFF" stroke="#73C3EB" stroke-width="3"/>
            <path fill="#C1E7FF" d="M40.614 61.554c11.766 0 21.304-9.538 21.304-21.304 0-6.155-2.61-11.7-6.783-15.589-1.926-1.795 7.15 10.155-5.183 24.303-12.334 14.149-24.574 6.23-23.643 7.073a21.226 21.226 0 0 0 14.305 5.517z"/>
            <path stroke="#005587" stroke-linecap="round" stroke-linejoin="round" stroke-width="3" d="M45.506 51.174c-1.937-.17-3.374-.253-4.31-.253-.935 0-2.502.084-4.701.253M29.91 40.232c.462 1.182 1.514 1.885 3.156 2.11 1.643.226 2.96-.446 3.952-2.014"/>
            <path stroke="#001928" stroke-linecap="round" stroke-linejoin="round" stroke-width="3" d="M44.5 39.69c.53 1.356 1.739 2.163 3.624 2.421 1.884.259 3.396-.512 4.534-2.311"/>
            <path stroke="#0079C1" stroke-linecap="round" stroke-width="3" d="M64 40c0 13.425-10.745 24.309-24 24.309S16 53.425 16 40"/>
            <circle cx="64" cy="39.5" r="1.5" fill="#001928"/>
        </g>
        <g stroke-width="3" transform="rotate(20 15.315 79.37)">
            <path fill="#FFF" fill-rule="nonzero" stroke="#73C3EB" stroke-linecap="round" stroke-linejoin="round" d="M25.817 0l-2.091 7.284a23.517 23.517 0 0 0-5.373 2.235l-6.598-3.678-5.914 5.914 3.678 6.598a23.518 23.518 0 0 0-2.235 5.373L0 25.817v8.366l7.284 2.091a23.519 23.519 0 0 0 2.235 5.373l-3.678 6.598 5.914 5.914 6.598-3.678a23.517 23.517 0 0 0 5.373 2.235L25.817 60h8.366l2.091-7.284a23.517 23.517 0 0 0 5.373-2.235l6.598 3.678 5.914-5.914-3.678-6.598a23.519 23.519 0 0 0 2.235-5.373L60 34.183v-8.366l-7.284-2.091a23.518 23.518 0 0 0-2.235-5.373l3.678-6.598-5.914-5.914-6.598 3.678a23.517 23.517 0 0 0-5.373-2.235L34.183 0h-8.366z"/>
            <circle cx="29.898" cy="29.898" r="13.898" stroke="#0079C1"/>
            <circle cx="29.879" cy="30.045" r="5.418" fill="#C1E7FF" stroke="#0079C1"/>
            <path stroke="#001928" stroke-linecap="round" d="M43.8 30c0 7.776-6.223 14.079-13.9 14.079C22.223 44.079 16 37.776 16 30"/>
        </g>
        <g stroke-width="3" transform="translate(12 72)">
            <path fill="#C1E7FF" stroke="#0079C1" d="M36.201 23.122a2.874 2.874 0 0 0-1.405-1.69l-1.801-.99a1.67 1.67 0 0 1-.879-1.69c.044-.452.088-.906.088-1.36 0-.453-.044-.906-.088-1.318a1.67 1.67 0 0 1 .879-1.69l1.8-.99c1.406-.782 1.934-2.472 1.099-3.832l-1.67-2.68c-.527-.865-1.537-1.4-2.591-1.4-.527 0-1.055.123-1.494.37l-1.8.99c-.616.33-1.407.288-2.022-.124l-.527-.37c-.483-.372-.966-.702-1.67-.99-.263-.124-.702-.412-.702-1.525V1.855C23.418 0 20.958 0 19.772 0h-3.295c-1.142 0-2.724 0-2.724 1.855v1.937c0 .618-.483 1.277-1.23 1.566-.966.412-1.845.865-2.547 1.36-.572.412-1.406.453-2.021.124l-1.801-.99a3.071 3.071 0 0 0-1.494-.37c-1.054 0-2.065.535-2.592 1.4l-1.67 2.68c-.395.66-.482 1.401-.307 2.143.22.742.703 1.319 1.406 1.69l1.801.99c.615.329.967.988.879 1.689-.044.453-.088.907-.088 1.36 0 .453.044.907.088 1.36a1.67 1.67 0 0 1-.879 1.69l-1.8.948c-1.407.783-1.934 2.473-1.1 3.833l1.626 2.679c.527.865 1.538 1.401 2.592 1.401.527 0 1.054-.123 1.494-.37l1.8-.99c.616-.33 1.407-.288 2.022.124.659.453 1.537.906 2.635 1.36.703.288 1.23.948 1.23 1.566v1.937c0 1.608 1.099 3.339 2.724 3.339h3.295c1.67 0 3.646-1.814 3.646-3.339v-1.937c0-1.113.44-1.443.79-1.566.88-.371 1.538-.824 2.329-1.36a1.822 1.822 0 0 1 1.933-.124l1.757.99c.44.247.966.37 1.494.37 1.054 0 2.02-.536 2.591-1.401l1.626-2.68c.307-.659.44-1.442.22-2.142z"/>
            <circle cx="18" cy="18" r="5" fill="#FFF" stroke="#005587"/>
        </g>
    </g>
</svg>
